<?xml version="1.0" encoding="UTF-8" standalone="no"?>
<!DOCTYPE svg PUBLIC "-//W3C//DTD SVG 1.1//EN"
 "http://www.w3.org/Graphics/SVG/1.1/DTD/svg11.dtd">
<!-- Generated by graphviz version 2.43.0 (0)
 -->
<!-- Title: snakemake_dag Pages: 1 -->
<svg width="416pt" height="260pt"
 viewBox="0.00 0.00 416.00 260.00" xmlns="http://www.w3.org/2000/svg" xmlns:xlink="http://www.w3.org/1999/xlink">
<g id="graph0" class="graph" transform="scale(1 1) rotate(0) translate(4 256)">
<title>snakemake_dag</title>
<polygon fill="white" stroke="transparent" points="-4,4 -4,-256 412,-256 412,4 -4,4"/>
<!-- 0 -->
<g id="node1" class="node">
<title>0</title>
<path fill="none" stroke="#59d856" stroke-width="2" stroke-dasharray="5,2" d="M208.5,-36C208.5,-36 160.5,-36 160.5,-36 154.5,-36 148.5,-30 148.5,-24 148.5,-24 148.5,-12 148.5,-12 148.5,-6 154.5,0 160.5,0 160.5,0 208.5,0 208.5,0 214.5,0 220.5,-6 220.5,-12 220.5,-12 220.5,-24 220.5,-24 220.5,-30 214.5,-36 208.5,-36"/>
<text text-anchor="middle" x="184.5" y="-15.5" font-family="sans" font-size="10.00">bcftools_call</text>
</g>
<!-- 1 -->
<g id="node2" class="node">
<title>1</title>
<path fill="none" stroke="#d85656" stroke-width="2" stroke-dasharray="5,2" d="M69,-180C69,-180 12,-180 12,-180 6,-180 0,-174 0,-168 0,-168 0,-156 0,-156 0,-150 6,-144 12,-144 12,-144 69,-144 69,-144 75,-144 81,-150 81,-156 81,-156 81,-168 81,-168 81,-174 75,-180 69,-180"/>
<text text-anchor="middle" x="40.5" y="-159.5" font-family="sans" font-size="10.00">samtools_sort</text>
</g>
<!-- 1&#45;&gt;0 -->
<g id="edge1" class="edge">
<title>1&#45;&gt;0</title>
<path fill="none" stroke="grey" stroke-width="2" d="M30.18,-143.93C20.03,-124.67 8.1,-93.28 23.5,-72 49.44,-36.15 100.45,-24.13 138.13,-20.31"/>
<polygon fill="grey" stroke="grey" stroke-width="2" points="138.71,-23.78 148.38,-19.44 138.11,-16.8 138.71,-23.78"/>
</g>
<!-- 7 -->
<g id="node8" class="node">
<title>7</title>
<path fill="none" stroke="#d6d856" stroke-width="2" stroke-dasharray="5,2" d="M108,-108C108,-108 45,-108 45,-108 39,-108 33,-102 33,-96 33,-96 33,-84 33,-84 33,-78 39,-72 45,-72 45,-72 108,-72 108,-72 114,-72 120,-78 120,-84 120,-84 120,-96 120,-96 120,-102 114,-108 108,-108"/>
<text text-anchor="middle" x="76.5" y="-87.5" font-family="sans" font-size="10.00">samtools_index</text>
</g>
<!-- 1&#45;&gt;7 -->
<g id="edge10" class="edge">
<title>1&#45;&gt;7</title>
<path fill="none" stroke="grey" stroke-width="2" d="M49.4,-143.7C53.5,-135.73 58.45,-126.1 62.99,-117.26"/>
<polygon fill="grey" stroke="grey" stroke-width="2" points="66.24,-118.6 67.7,-108.1 60.02,-115.4 66.24,-118.6"/>
</g>
<!-- 2 -->
<g id="node3" class="node">
<title>2</title>
<path fill="none" stroke="#56d8d8" stroke-width="2" stroke-dasharray="5,2" d="M61.5,-252C61.5,-252 19.5,-252 19.5,-252 13.5,-252 7.5,-246 7.5,-240 7.5,-240 7.5,-228 7.5,-228 7.5,-222 13.5,-216 19.5,-216 19.5,-216 61.5,-216 61.5,-216 67.5,-216 73.5,-222 73.5,-228 73.5,-228 73.5,-240 73.5,-240 73.5,-246 67.5,-252 61.5,-252"/>
<text text-anchor="middle" x="40.5" y="-237" font-family="sans" font-size="10.00">bwa_map</text>
<text text-anchor="middle" x="40.5" y="-226" font-family="sans" font-size="10.00">samples: A</text>
</g>
<!-- 2&#45;&gt;1 -->
<g id="edge7" class="edge">
<title>2&#45;&gt;1</title>
<path fill="none" stroke="grey" stroke-width="2" d="M40.5,-215.7C40.5,-207.98 40.5,-198.71 40.5,-190.11"/>
<polygon fill="grey" stroke="grey" stroke-width="2" points="44,-190.1 40.5,-180.1 37,-190.1 44,-190.1"/>
</g>
<!-- 3 -->
<g id="node4" class="node">
<title>3</title>
<path fill="none" stroke="#d85656" stroke-width="2" stroke-dasharray="5,2" d="M231,-180C231,-180 174,-180 174,-180 168,-180 162,-174 162,-168 162,-168 162,-156 162,-156 162,-150 168,-144 174,-144 174,-144 231,-144 231,-144 237,-144 243,-150 243,-156 243,-156 243,-168 243,-168 243,-174 237,-180 231,-180"/>
<text text-anchor="middle" x="202.5" y="-159.5" font-family="sans" font-size="10.00">samtools_sort</text>
</g>
<!-- 3&#45;&gt;0 -->
<g id="edge2" class="edge">
<title>3&#45;&gt;0</title>
<path fill="none" stroke="grey" stroke-width="2" d="M187.75,-143.63C180.41,-133.85 172.31,-121.01 168.5,-108 162.49,-87.5 167.39,-63.65 173.3,-45.81"/>
<polygon fill="grey" stroke="grey" stroke-width="2" points="176.62,-46.91 176.72,-36.32 170.03,-44.54 176.62,-46.91"/>
</g>
<!-- 8 -->
<g id="node9" class="node">
<title>8</title>
<path fill="none" stroke="#d6d856" stroke-width="2" stroke-dasharray="5,2" d="M252,-108C252,-108 189,-108 189,-108 183,-108 177,-102 177,-96 177,-96 177,-84 177,-84 177,-78 183,-72 189,-72 189,-72 252,-72 252,-72 258,-72 264,-78 264,-84 264,-84 264,-96 264,-96 264,-102 258,-108 252,-108"/>
<text text-anchor="middle" x="220.5" y="-87.5" font-family="sans" font-size="10.00">samtools_index</text>
</g>
<!-- 3&#45;&gt;8 -->
<g id="edge11" class="edge">
<title>3&#45;&gt;8</title>
<path fill="none" stroke="grey" stroke-width="2" d="M206.95,-143.7C208.95,-135.9 211.37,-126.51 213.6,-117.83"/>
<polygon fill="grey" stroke="grey" stroke-width="2" points="217,-118.66 216.1,-108.1 210.22,-116.92 217,-118.66"/>
</g>
<!-- 4 -->
<g id="node5" class="node">
<title>4</title>
<path fill="none" stroke="#56d8d8" stroke-width="2" stroke-dasharray="5,2" d="M223.5,-252C223.5,-252 181.5,-252 181.5,-252 175.5,-252 169.5,-246 169.5,-240 169.5,-240 169.5,-228 169.5,-228 169.5,-222 175.5,-216 181.5,-216 181.5,-216 223.5,-216 223.5,-216 229.5,-216 235.5,-222 235.5,-228 235.5,-228 235.5,-240 235.5,-240 235.5,-246 229.5,-252 223.5,-252"/>
<text text-anchor="middle" x="202.5" y="-237" font-family="sans" font-size="10.00">bwa_map</text>
<text text-anchor="middle" x="202.5" y="-226" font-family="sans" font-size="10.00">samples: B</text>
</g>
<!-- 4&#45;&gt;3 -->
<g id="edge8" class="edge">
<title>4&#45;&gt;3</title>
<path fill="none" stroke="grey" stroke-width="2" d="M202.5,-215.7C202.5,-207.98 202.5,-198.71 202.5,-190.11"/>
<polygon fill="grey" stroke="grey" stroke-width="2" points="206,-190.1 202.5,-180.1 199,-190.1 206,-190.1"/>
</g>
<!-- 5 -->
<g id="node6" class="node">
<title>5</title>
<path fill="none" stroke="#d85656" stroke-width="2" stroke-dasharray="5,2" d="M339,-180C339,-180 282,-180 282,-180 276,-180 270,-174 270,-168 270,-168 270,-156 270,-156 270,-150 276,-144 282,-144 282,-144 339,-144 339,-144 345,-144 351,-150 351,-156 351,-156 351,-168 351,-168 351,-174 345,-180 339,-180"/>
<text text-anchor="middle" x="310.5" y="-159.5" font-family="sans" font-size="10.00">samtools_sort</text>
</g>
<!-- 5&#45;&gt;0 -->
<g id="edge3" class="edge">
<title>5&#45;&gt;0</title>
<path fill="none" stroke="grey" stroke-width="2" d="M306.83,-143.87C301.97,-124.56 291.8,-93.12 273.5,-72 261.59,-58.25 245.2,-47.09 229.72,-38.62"/>
<polygon fill="grey" stroke="grey" stroke-width="2" points="231.25,-35.47 220.76,-33.95 228.01,-41.68 231.25,-35.47"/>
</g>
<!-- 9 -->
<g id="node10" class="node">
<title>9</title>
<path fill="none" stroke="#d6d856" stroke-width="2" stroke-dasharray="5,2" d="M396,-108C396,-108 333,-108 333,-108 327,-108 321,-102 321,-96 321,-96 321,-84 321,-84 321,-78 327,-72 333,-72 333,-72 396,-72 396,-72 402,-72 408,-78 408,-84 408,-84 408,-96 408,-96 408,-102 402,-108 396,-108"/>
<text text-anchor="middle" x="364.5" y="-87.5" font-family="sans" font-size="10.00">samtools_index</text>
</g>
<!-- 5&#45;&gt;9 -->
<g id="edge12" class="edge">
<title>5&#45;&gt;9</title>
<path fill="none" stroke="grey" stroke-width="2" d="M323.85,-143.7C330.26,-135.39 338.06,-125.28 345.11,-116.14"/>
<polygon fill="grey" stroke="grey" stroke-width="2" points="347.97,-118.16 351.31,-108.1 342.43,-113.88 347.97,-118.16"/>
</g>
<!-- 6 -->
<g id="node7" class="node">
<title>6</title>
<path fill="none" stroke="#56d8d8" stroke-width="2" stroke-dasharray="5,2" d="M331,-252C331,-252 290,-252 290,-252 284,-252 278,-246 278,-240 278,-240 278,-228 278,-228 278,-222 284,-216 290,-216 290,-216 331,-216 331,-216 337,-216 343,-222 343,-228 343,-228 343,-240 343,-240 343,-246 337,-252 331,-252"/>
<text text-anchor="middle" x="310.5" y="-237" font-family="sans" font-size="10.00">bwa_map</text>
<text text-anchor="middle" x="310.5" y="-226" font-family="sans" font-size="10.00">samples: C</text>
</g>
<!-- 6&#45;&gt;5 -->
<g id="edge9" class="edge">
<title>6&#45;&gt;5</title>
<path fill="none" stroke="grey" stroke-width="2" d="M310.5,-215.7C310.5,-207.98 310.5,-198.71 310.5,-190.11"/>
<polygon fill="grey" stroke="grey" stroke-width="2" points="314,-190.1 310.5,-180.1 307,-190.1 314,-190.1"/>
</g>
<!-- 7&#45;&gt;0 -->
<g id="edge4" class="edge">
<title>7&#45;&gt;0</title>
<path fill="none" stroke="grey" stroke-width="2" d="M102.92,-71.88C116.91,-62.81 134.28,-51.55 149.39,-41.76"/>
<polygon fill="grey" stroke="grey" stroke-width="2" points="151.49,-44.57 157.98,-36.19 147.68,-38.69 151.49,-44.57"/>
</g>
<!-- 8&#45;&gt;0 -->
<g id="edge5" class="edge">
<title>8&#45;&gt;0</title>
<path fill="none" stroke="grey" stroke-width="2" d="M211.6,-71.7C207.5,-63.73 202.55,-54.1 198.01,-45.26"/>
<polygon fill="grey" stroke="grey" stroke-width="2" points="200.98,-43.4 193.3,-36.1 194.76,-46.6 200.98,-43.4"/>
</g>
<!-- 9&#45;&gt;0 -->
<g id="edge6" class="edge">
<title>9&#45;&gt;0</title>
<path fill="none" stroke="grey" stroke-width="2" d="M320.93,-72.05C293.47,-61.38 258.08,-47.61 230.22,-36.78"/>
<polygon fill="grey" stroke="grey" stroke-width="2" points="231.29,-33.44 220.71,-33.08 228.76,-39.97 231.29,-33.44"/>
</g>
</g>
</svg>
