<?xml version="1.0" encoding="UTF-8" standalone="no"?>
<!DOCTYPE svg PUBLIC "-//W3C//DTD SVG 1.1//EN"
 "http://www.w3.org/Graphics/SVG/1.1/DTD/svg11.dtd">
<!-- Generated by graphviz version 2.43.0 (0)
 -->
<!-- Title: snakemake_dag Pages: 1 -->
<svg width="416pt" height="332pt"
 viewBox="0.00 0.00 416.00 332.00" xmlns="http://www.w3.org/2000/svg" xmlns:xlink="http://www.w3.org/1999/xlink">
<g id="graph0" class="graph" transform="scale(1 1) rotate(0) translate(4 328)">
<title>snakemake_dag</title>
<polygon fill="white" stroke="transparent" points="-4,4 -4,-328 412,-328 412,4 -4,4"/>
<!-- 0 -->
<g id="node1" class="node">
<title>0</title>
<path fill="none" stroke="#56d88a" stroke-width="2" stroke-dasharray="5,2" d="M199.5,-36C199.5,-36 169.5,-36 169.5,-36 163.5,-36 157.5,-30 157.5,-24 157.5,-24 157.5,-12 157.5,-12 157.5,-6 163.5,0 169.5,0 169.5,0 199.5,0 199.5,0 205.5,0 211.5,-6 211.5,-12 211.5,-12 211.5,-24 211.5,-24 211.5,-30 205.5,-36 199.5,-36"/>
<text text-anchor="middle" x="184.5" y="-15.5" font-family="sans" font-size="10.00">all</text>
</g>
<!-- 1 -->
<g id="node2" class="node">
<title>1</title>
<path fill="none" stroke="#d85656" stroke-width="2" stroke-dasharray="5,2" d="M208.5,-108C208.5,-108 160.5,-108 160.5,-108 154.5,-108 148.5,-102 148.5,-96 148.5,-96 148.5,-84 148.5,-84 148.5,-78 154.5,-72 160.5,-72 160.5,-72 208.5,-72 208.5,-72 214.5,-72 220.5,-78 220.5,-84 220.5,-84 220.5,-96 220.5,-96 220.5,-102 214.5,-108 208.5,-108"/>
<text text-anchor="middle" x="184.5" y="-87.5" font-family="sans" font-size="10.00">bcftools_call</text>
</g>
<!-- 1&#45;&gt;0 -->
<g id="edge1" class="edge">
<title>1&#45;&gt;0</title>
<path fill="none" stroke="grey" stroke-width="2" d="M184.5,-71.7C184.5,-63.98 184.5,-54.71 184.5,-46.11"/>
<polygon fill="grey" stroke="grey" stroke-width="2" points="188,-46.1 184.5,-36.1 181,-46.1 188,-46.1"/>
</g>
<!-- 2 -->
<g id="node3" class="node">
<title>2</title>
<path fill="none" stroke="#d8bc56" stroke-width="2" stroke-dasharray="5,2" d="M69,-252C69,-252 12,-252 12,-252 6,-252 0,-246 0,-240 0,-240 0,-228 0,-228 0,-222 6,-216 12,-216 12,-216 69,-216 69,-216 75,-216 81,-222 81,-228 81,-228 81,-240 81,-240 81,-246 75,-252 69,-252"/>
<text text-anchor="middle" x="40.5" y="-231.5" font-family="sans" font-size="10.00">samtools_sort</text>
</g>
<!-- 2&#45;&gt;1 -->
<g id="edge2" class="edge">
<title>2&#45;&gt;1</title>
<path fill="none" stroke="grey" stroke-width="2" d="M30.18,-215.93C20.03,-196.67 8.1,-165.28 23.5,-144 49.44,-108.15 100.45,-96.13 138.13,-92.31"/>
<polygon fill="grey" stroke="grey" stroke-width="2" points="138.71,-95.78 148.38,-91.44 138.11,-88.8 138.71,-95.78"/>
</g>
<!-- 8 -->
<g id="node9" class="node">
<title>8</title>
<path fill="none" stroke="#56c1d8" stroke-width="2" stroke-dasharray="5,2" d="M108,-180C108,-180 45,-180 45,-180 39,-180 33,-174 33,-168 33,-168 33,-156 33,-156 33,-150 39,-144 45,-144 45,-144 108,-144 108,-144 114,-144 120,-150 120,-156 120,-156 120,-168 120,-168 120,-174 114,-180 108,-180"/>
<text text-anchor="middle" x="76.5" y="-159.5" font-family="sans" font-size="10.00">samtools_index</text>
</g>
<!-- 2&#45;&gt;8 -->
<g id="edge11" class="edge">
<title>2&#45;&gt;8</title>
<path fill="none" stroke="grey" stroke-width="2" d="M49.4,-215.7C53.5,-207.73 58.45,-198.1 62.99,-189.26"/>
<polygon fill="grey" stroke="grey" stroke-width="2" points="66.24,-190.6 67.7,-180.1 60.02,-187.4 66.24,-190.6"/>
</g>
<!-- 3 -->
<g id="node4" class="node">
<title>3</title>
<path fill="none" stroke="#88d856" stroke-width="2" stroke-dasharray="5,2" d="M61.5,-324C61.5,-324 19.5,-324 19.5,-324 13.5,-324 7.5,-318 7.5,-312 7.5,-312 7.5,-300 7.5,-300 7.5,-294 13.5,-288 19.5,-288 19.5,-288 61.5,-288 61.5,-288 67.5,-288 73.5,-294 73.5,-300 73.5,-300 73.5,-312 73.5,-312 73.5,-318 67.5,-324 61.5,-324"/>
<text text-anchor="middle" x="40.5" y="-309" font-family="sans" font-size="10.00">bwa_map</text>
<text text-anchor="middle" x="40.5" y="-298" font-family="sans" font-size="10.00">samples: A</text>
</g>
<!-- 3&#45;&gt;2 -->
<g id="edge8" class="edge">
<title>3&#45;&gt;2</title>
<path fill="none" stroke="grey" stroke-width="2" d="M40.5,-287.7C40.5,-279.98 40.5,-270.71 40.5,-262.11"/>
<polygon fill="grey" stroke="grey" stroke-width="2" points="44,-262.1 40.5,-252.1 37,-262.1 44,-262.1"/>
</g>
<!-- 4 -->
<g id="node5" class="node">
<title>4</title>
<path fill="none" stroke="#d8bc56" stroke-width="2" stroke-dasharray="5,2" d="M231,-252C231,-252 174,-252 174,-252 168,-252 162,-246 162,-240 162,-240 162,-228 162,-228 162,-222 168,-216 174,-216 174,-216 231,-216 231,-216 237,-216 243,-222 243,-228 243,-228 243,-240 243,-240 243,-246 237,-252 231,-252"/>
<text text-anchor="middle" x="202.5" y="-231.5" font-family="sans" font-size="10.00">samtools_sort</text>
</g>
<!-- 4&#45;&gt;1 -->
<g id="edge3" class="edge">
<title>4&#45;&gt;1</title>
<path fill="none" stroke="grey" stroke-width="2" d="M187.75,-215.63C180.41,-205.85 172.31,-193.01 168.5,-180 162.49,-159.5 167.39,-135.65 173.3,-117.81"/>
<polygon fill="grey" stroke="grey" stroke-width="2" points="176.62,-118.91 176.72,-108.32 170.03,-116.54 176.62,-118.91"/>
</g>
<!-- 9 -->
<g id="node10" class="node">
<title>9</title>
<path fill="none" stroke="#56c1d8" stroke-width="2" stroke-dasharray="5,2" d="M252,-180C252,-180 189,-180 189,-180 183,-180 177,-174 177,-168 177,-168 177,-156 177,-156 177,-150 183,-144 189,-144 189,-144 252,-144 252,-144 258,-144 264,-150 264,-156 264,-156 264,-168 264,-168 264,-174 258,-180 252,-180"/>
<text text-anchor="middle" x="220.5" y="-159.5" font-family="sans" font-size="10.00">samtools_index</text>
</g>
<!-- 4&#45;&gt;9 -->
<g id="edge12" class="edge">
<title>4&#45;&gt;9</title>
<path fill="none" stroke="grey" stroke-width="2" d="M206.95,-215.7C208.95,-207.9 211.37,-198.51 213.6,-189.83"/>
<polygon fill="grey" stroke="grey" stroke-width="2" points="217,-190.66 216.1,-180.1 210.22,-188.92 217,-190.66"/>
</g>
<!-- 5 -->
<g id="node6" class="node">
<title>5</title>
<path fill="none" stroke="#88d856" stroke-width="2" stroke-dasharray="5,2" d="M223.5,-324C223.5,-324 181.5,-324 181.5,-324 175.5,-324 169.5,-318 169.5,-312 169.5,-312 169.5,-300 169.5,-300 169.5,-294 175.5,-288 181.5,-288 181.5,-288 223.5,-288 223.5,-288 229.5,-288 235.5,-294 235.5,-300 235.5,-300 235.5,-312 235.5,-312 235.5,-318 229.5,-324 223.5,-324"/>
<text text-anchor="middle" x="202.5" y="-309" font-family="sans" font-size="10.00">bwa_map</text>
<text text-anchor="middle" x="202.5" y="-298" font-family="sans" font-size="10.00">samples: B</text>
</g>
<!-- 5&#45;&gt;4 -->
<g id="edge9" class="edge">
<title>5&#45;&gt;4</title>
<path fill="none" stroke="grey" stroke-width="2" d="M202.5,-287.7C202.5,-279.98 202.5,-270.71 202.5,-262.11"/>
<polygon fill="grey" stroke="grey" stroke-width="2" points="206,-262.1 202.5,-252.1 199,-262.1 206,-262.1"/>
</g>
<!-- 6 -->
<g id="node7" class="node">
<title>6</title>
<path fill="none" stroke="#d8bc56" stroke-width="2" stroke-dasharray="5,2" d="M339,-252C339,-252 282,-252 282,-252 276,-252 270,-246 270,-240 270,-240 270,-228 270,-228 270,-222 276,-216 282,-216 282,-216 339,-216 339,-216 345,-216 351,-222 351,-228 351,-228 351,-240 351,-240 351,-246 345,-252 339,-252"/>
<text text-anchor="middle" x="310.5" y="-231.5" font-family="sans" font-size="10.00">samtools_sort</text>
</g>
<!-- 6&#45;&gt;1 -->
<g id="edge4" class="edge">
<title>6&#45;&gt;1</title>
<path fill="none" stroke="grey" stroke-width="2" d="M306.83,-215.87C301.97,-196.56 291.8,-165.12 273.5,-144 261.59,-130.25 245.2,-119.09 229.72,-110.62"/>
<polygon fill="grey" stroke="grey" stroke-width="2" points="231.25,-107.47 220.76,-105.95 228.01,-113.68 231.25,-107.47"/>
</g>
<!-- 10 -->
<g id="node11" class="node">
<title>10</title>
<path fill="none" stroke="#56c1d8" stroke-width="2" stroke-dasharray="5,2" d="M396,-180C396,-180 333,-180 333,-180 327,-180 321,-174 321,-168 321,-168 321,-156 321,-156 321,-150 327,-144 333,-144 333,-144 396,-144 396,-144 402,-144 408,-150 408,-156 408,-156 408,-168 408,-168 408,-174 402,-180 396,-180"/>
<text text-anchor="middle" x="364.5" y="-159.5" font-family="sans" font-size="10.00">samtools_index</text>
</g>
<!-- 6&#45;&gt;10 -->
<g id="edge13" class="edge">
<title>6&#45;&gt;10</title>
<path fill="none" stroke="grey" stroke-width="2" d="M323.85,-215.7C330.26,-207.39 338.06,-197.28 345.11,-188.14"/>
<polygon fill="grey" stroke="grey" stroke-width="2" points="347.97,-190.16 351.31,-180.1 342.43,-185.88 347.97,-190.16"/>
</g>
<!-- 7 -->
<g id="node8" class="node">
<title>7</title>
<path fill="none" stroke="#88d856" stroke-width="2" stroke-dasharray="5,2" d="M331,-324C331,-324 290,-324 290,-324 284,-324 278,-318 278,-312 278,-312 278,-300 278,-300 278,-294 284,-288 290,-288 290,-288 331,-288 331,-288 337,-288 343,-294 343,-300 343,-300 343,-312 343,-312 343,-318 337,-324 331,-324"/>
<text text-anchor="middle" x="310.5" y="-309" font-family="sans" font-size="10.00">bwa_map</text>
<text text-anchor="middle" x="310.5" y="-298" font-family="sans" font-size="10.00">samples: C</text>
</g>
<!-- 7&#45;&gt;6 -->
<g id="edge10" class="edge">
<title>7&#45;&gt;6</title>
<path fill="none" stroke="grey" stroke-width="2" d="M310.5,-287.7C310.5,-279.98 310.5,-270.71 310.5,-262.11"/>
<polygon fill="grey" stroke="grey" stroke-width="2" points="314,-262.1 310.5,-252.1 307,-262.1 314,-262.1"/>
</g>
<!-- 8&#45;&gt;1 -->
<g id="edge5" class="edge">
<title>8&#45;&gt;1</title>
<path fill="none" stroke="grey" stroke-width="2" d="M102.92,-143.88C116.91,-134.81 134.28,-123.55 149.39,-113.76"/>
<polygon fill="grey" stroke="grey" stroke-width="2" points="151.49,-116.57 157.98,-108.19 147.68,-110.69 151.49,-116.57"/>
</g>
<!-- 9&#45;&gt;1 -->
<g id="edge6" class="edge">
<title>9&#45;&gt;1</title>
<path fill="none" stroke="grey" stroke-width="2" d="M211.6,-143.7C207.5,-135.73 202.55,-126.1 198.01,-117.26"/>
<polygon fill="grey" stroke="grey" stroke-width="2" points="200.98,-115.4 193.3,-108.1 194.76,-118.6 200.98,-115.4"/>
</g>
<!-- 10&#45;&gt;1 -->
<g id="edge7" class="edge">
<title>10&#45;&gt;1</title>
<path fill="none" stroke="grey" stroke-width="2" d="M320.93,-144.05C293.47,-133.38 258.08,-119.61 230.22,-108.78"/>
<polygon fill="grey" stroke="grey" stroke-width="2" points="231.29,-105.44 220.71,-105.08 228.76,-111.97 231.29,-105.44"/>
</g>
</g>
</svg>
