<?xml version="1.0" encoding="UTF-8" standalone="no"?>
<!DOCTYPE svg PUBLIC "-//W3C//DTD SVG 1.1//EN"
 "http://www.w3.org/Graphics/SVG/1.1/DTD/svg11.dtd">
<!-- Generated by graphviz version 2.43.0 (0)
 -->
<!-- Title: snakemake_dag Pages: 1 -->
<svg width="287pt" height="116pt"
 viewBox="0.00 0.00 287.00 116.00" xmlns="http://www.w3.org/2000/svg" xmlns:xlink="http://www.w3.org/1999/xlink">
<g id="graph0" class="graph" transform="scale(1 1) rotate(0) translate(4 112)">
<title>snakemake_dag</title>
<polygon fill="white" stroke="transparent" points="-4,4 -4,-112 283,-112 283,4 -4,4"/>
<!-- 0 -->
<g id="node1" class="node">
<title>0</title>
<path fill="none" stroke="#d85656" stroke-width="2" d="M69,-36C69,-36 12,-36 12,-36 6,-36 0,-30 0,-24 0,-24 0,-12 0,-12 0,-6 6,0 12,0 12,0 69,0 69,0 75,0 81,-6 81,-12 81,-12 81,-24 81,-24 81,-30 75,-36 69,-36"/>
<text text-anchor="middle" x="40.5" y="-15.5" font-family="sans" font-size="10.00">samtools_sort</text>
</g>
<!-- 1 -->
<g id="node2" class="node">
<title>1</title>
<path fill="none" stroke="#59d856" stroke-width="2" d="M59,-108C59,-108 22,-108 22,-108 16,-108 10,-102 10,-96 10,-96 10,-84 10,-84 10,-78 16,-72 22,-72 22,-72 59,-72 59,-72 65,-72 71,-78 71,-84 71,-84 71,-96 71,-96 71,-102 65,-108 59,-108"/>
<text text-anchor="middle" x="40.5" y="-93" font-family="sans" font-size="10.00">bwa_map</text>
<text text-anchor="middle" x="40.5" y="-82" font-family="sans" font-size="10.00">sample: C</text>
</g>
<!-- 1&#45;&gt;0 -->
<g id="edge1" class="edge">
<title>1&#45;&gt;0</title>
<path fill="none" stroke="grey" stroke-width="2" d="M40.5,-71.7C40.5,-63.98 40.5,-54.71 40.5,-46.11"/>
<polygon fill="grey" stroke="grey" stroke-width="2" points="44,-46.1 40.5,-36.1 37,-46.1 44,-46.1"/>
</g>
<!-- 2 -->
<g id="node3" class="node">
<title>2</title>
<path fill="none" stroke="#d85656" stroke-width="2" d="M168,-36C168,-36 111,-36 111,-36 105,-36 99,-30 99,-24 99,-24 99,-12 99,-12 99,-6 105,0 111,0 111,0 168,0 168,0 174,0 180,-6 180,-12 180,-12 180,-24 180,-24 180,-30 174,-36 168,-36"/>
<text text-anchor="middle" x="139.5" y="-15.5" font-family="sans" font-size="10.00">samtools_sort</text>
</g>
<!-- 3 -->
<g id="node4" class="node">
<title>3</title>
<path fill="none" stroke="#59d856" stroke-width="2" d="M158.5,-108C158.5,-108 120.5,-108 120.5,-108 114.5,-108 108.5,-102 108.5,-96 108.5,-96 108.5,-84 108.5,-84 108.5,-78 114.5,-72 120.5,-72 120.5,-72 158.5,-72 158.5,-72 164.5,-72 170.5,-78 170.5,-84 170.5,-84 170.5,-96 170.5,-96 170.5,-102 164.5,-108 158.5,-108"/>
<text text-anchor="middle" x="139.5" y="-93" font-family="sans" font-size="10.00">bwa_map</text>
<text text-anchor="middle" x="139.5" y="-82" font-family="sans" font-size="10.00">sample: A</text>
</g>
<!-- 3&#45;&gt;2 -->
<g id="edge2" class="edge">
<title>3&#45;&gt;2</title>
<path fill="none" stroke="grey" stroke-width="2" d="M139.5,-71.7C139.5,-63.98 139.5,-54.71 139.5,-46.11"/>
<polygon fill="grey" stroke="grey" stroke-width="2" points="143,-46.1 139.5,-36.1 136,-46.1 143,-46.1"/>
</g>
<!-- 4 -->
<g id="node5" class="node">
<title>4</title>
<path fill="none" stroke="#d85656" stroke-width="2" stroke-dasharray="5,2" d="M267,-36C267,-36 210,-36 210,-36 204,-36 198,-30 198,-24 198,-24 198,-12 198,-12 198,-6 204,0 210,0 210,0 267,0 267,0 273,0 279,-6 279,-12 279,-12 279,-24 279,-24 279,-30 273,-36 267,-36"/>
<text text-anchor="middle" x="238.5" y="-15.5" font-family="sans" font-size="10.00">samtools_sort</text>
</g>
<!-- 5 -->
<g id="node6" class="node">
<title>5</title>
<path fill="none" stroke="#59d856" stroke-width="2" stroke-dasharray="5,2" d="M257.5,-108C257.5,-108 219.5,-108 219.5,-108 213.5,-108 207.5,-102 207.5,-96 207.5,-96 207.5,-84 207.5,-84 207.5,-78 213.5,-72 219.5,-72 219.5,-72 257.5,-72 257.5,-72 263.5,-72 269.5,-78 269.5,-84 269.5,-84 269.5,-96 269.5,-96 269.5,-102 263.5,-108 257.5,-108"/>
<text text-anchor="middle" x="238.5" y="-93" font-family="sans" font-size="10.00">bwa_map</text>
<text text-anchor="middle" x="238.5" y="-82" font-family="sans" font-size="10.00">sample: B</text>
</g>
<!-- 5&#45;&gt;4 -->
<g id="edge3" class="edge">
<title>5&#45;&gt;4</title>
<path fill="none" stroke="grey" stroke-width="2" d="M238.5,-71.7C238.5,-63.98 238.5,-54.71 238.5,-46.11"/>
<polygon fill="grey" stroke="grey" stroke-width="2" points="242,-46.1 238.5,-36.1 235,-46.1 242,-46.1"/>
</g>
</g>
</svg>
